<svg width="983" height="114" viewBox="0 0 983 114" fill="none" xmlns="http://www.w3.org/2000/svg">
<path d="M144 97.8759H163.889V71.5109H181.229C198.058 71.5109 209.787 59.6569 209.787 42.6934C209.787 27.0584 198.058 16.1241 181.229 16.1241H144V97.8759ZM163.889 53.6277V34.0073H180.107C185.92 34.0073 189.898 37.9927 189.898 43.8175C189.898 49.6423 185.92 53.6277 180.107 53.6277H163.889Z" fill="#111111"/>
<path d="M258.349 99C283.339 99 300.78 81.8321 300.78 56.8978C300.78 32.0657 283.339 15 258.349 15C233.36 15 215.919 32.0657 215.919 56.8978C215.919 81.8321 233.36 99 258.349 99ZM236.318 56.8978C236.318 43.2044 245.294 33.8029 258.349 33.8029C271.405 33.8029 280.483 43.2044 280.483 56.8978C280.483 70.7956 271.405 80.1971 258.349 80.1971C245.294 80.1971 236.318 70.7956 236.318 56.8978Z" fill="#111111"/>
<path d="M326.44 97.8759H347.145L365.096 45.146L382.946 97.8759H403.651L426.6 16.1241H406.303L391.921 68.9562L375.908 16.1241H354.387L338.271 68.9562L323.992 16.1241H303.695L326.44 97.8759Z" fill="#111111"/>
<path d="M435.545 97.8759H496.029V80.4015H455.434V64.6642H489.909V47.1898H455.434V33.4964H496.029V16.1241H435.545V97.8759Z" fill="#111111"/>
<path d="M510.847 97.8759H530.736V68.3431H539.202L557.969 97.8759H580.408L559.907 66.4015C570.005 62.7226 576.634 53.4234 576.634 41.9781C576.634 26.7518 565.721 16.1241 550.115 16.1241H510.847V97.8759ZM530.736 50.4599V34.0073H548.891C553.583 34.0073 556.745 37.3796 556.745 42.2847C556.745 47.0876 553.583 50.4599 548.891 50.4599H530.736Z" fill="#111111"/>
<path d="M590.033 97.8759H609.923V65.2774H640.011V97.8759H659.799V16.1241H640.011V47.3942H609.923V16.1241H590.033V97.8759Z" fill="#111111"/>
<path d="M714.443 99C739.432 99 756.873 81.8321 756.873 56.8978C756.873 32.0657 739.432 15 714.443 15C689.454 15 672.013 32.0657 672.013 56.8978C672.013 81.8321 689.454 99 714.443 99ZM692.412 56.8978C692.412 43.2044 701.387 33.8029 714.443 33.8029C727.498 33.8029 736.576 43.2044 736.576 56.8978C736.576 70.7956 727.498 80.1971 714.443 80.1971C701.387 80.1971 692.412 70.7956 692.412 56.8978Z" fill="#111111"/>
<path d="M802.987 99C823.488 99 837.869 84.5912 837.869 63.9489V16.1241H818.082V65.5839C818.082 74.4745 811.86 80.6058 802.987 80.6058C794.113 80.6058 787.993 74.4745 787.993 65.5839V16.1241L768.104 28.1241V63.9489C768.104 84.5912 782.485 99 802.987 99Z" fill="#111111"/>
<path d="M881.036 99C898.069 99 910.309 89.8029 910.309 74.1679C910.309 59.9635 899.803 54.2409 887.768 49.5401C876.446 45.0438 871.244 43.6131 871.244 39.1168C871.244 35.6423 874.508 32.8832 879.098 32.8832C884.096 32.8832 887.36 36.1533 887.36 41.4672H906.739C906.739 25.7299 895.927 15 879.098 15C863.391 15 850.845 23.5839 850.845 37.9927C850.845 52.0949 862.779 57.7153 875.426 63.2336C883.382 66.8102 889.604 69.0584 889.604 74.6788C889.604 79.1752 885.83 81.5256 880.628 81.5256C873.284 81.5256 869.51 76.927 869.51 71H849.111C849.111 87.4526 862.065 99 881.036 99Z" fill="#111111"/>
<path d="M922.516 97.8759H983V80.4015H942.406V64.6642H976.88V47.1898H942.406V33.4964H983V16.1241H922.516V97.8759Z" fill="#111111"/>
<mask id="mask0_301_613" style="mask-type:alpha" maskUnits="userSpaceOnUse" x="0" y="0" width="114" height="114">
<path fill-rule="evenodd" clip-rule="evenodd" d="M71.2919 0L24.3415 38.8772C17.4548 44.5798 16.9539 54.9659 23.26 61.3047L39.5028 77.6318C44.2684 82.4221 45.2996 89.7834 42.0335 95.6988L31.929 114H15.2C6.80527 114 0 107.195 0 98.8V15.2C0 6.80527 6.80527 0 15.2 0H71.2919ZM80.111 0L71.3412 15.9758C68.1078 21.866 69.1255 29.1804 73.8441 33.9641L91.0751 51.4331C97.3674 57.8124 96.8044 68.2227 89.8607 73.8861L40.6782 114H98.8C107.195 114 114 107.195 114 98.8V15.2C114 6.80527 107.195 0 98.8 0H80.111Z" fill="url(#paint0_angular_301_613)"/>
</mask>
<g mask="url(#mask0_301_613)">
<rect width="114" height="114" fill="url(#paint1_radial_301_613)"/>
</g>
<defs>
<radialGradient id="paint0_angular_301_613" cx="0" cy="0" r="1" gradientUnits="userSpaceOnUse" gradientTransform="translate(57 50.16) rotate(106.579) scale(77.9088 88.3194)">
<stop offset="0.145266" stop-color="#5C8BFF"/>
<stop offset="0.557027" stop-color="#8DC3FF"/>
<stop offset="0.895882" stop-color="#8B7DFF"/>
<stop offset="0.993865" stop-color="#4C5BF2"/>
</radialGradient>
<radialGradient id="paint1_radial_301_613" cx="0" cy="0" r="1" gradientUnits="userSpaceOnUse" gradientTransform="translate(94 -9.99997) rotate(145.437) scale(245.899 306.632)">
<stop offset="0.158777" stop-color="#90C8FF"/>
<stop offset="0.354805" stop-color="#958EFF"/>
<stop offset="0.52013" stop-color="#6B74F9"/>
<stop offset="0.636255" stop-color="#4A60F4"/>
<stop offset="0.856811" stop-color="#5E8BFF"/>
</radialGradient>
</defs>
</svg>
