<svg width="120" height="120" viewBox="0 0 120 120" fill="none" xmlns="http://www.w3.org/2000/svg">
<path fill-rule="evenodd" clip-rule="evenodd" d="M75.0442 0L25.6227 40.9234C18.3734 46.9262 17.8462 57.8589 24.4842 64.5313L41.5819 81.7176C46.5983 86.7601 47.6837 94.5088 44.2458 100.736L33.6095 120H16C7.16344 120 0 112.837 0 104V16C0 7.16344 7.16345 0 16 0H75.0442ZM84.3273 0L75.096 16.8166C71.6924 23.0169 72.7637 30.7162 77.7307 35.7517L95.8685 54.1401C102.492 60.8552 101.899 71.8134 94.5902 77.7749L42.8191 120H104C112.837 120 120 112.837 120 104V16C120 7.16345 112.837 0 104 0H84.3273Z" fill="#F7F7F7"/>
</svg>
