<svg width="25" height="14" viewBox="0 0 25 14" fill="none" xmlns="http://www.w3.org/2000/svg">
<path d="M12.2299 8.89666C11.611 8.89666 10.9921 8.81929 10.3989 8.63878L4.10669 6.78205V10.2118C4.10669 10.9597 5.29293 11.8107 5.29293 11.8107C5.29293 11.8107 8.23275 13.6932 12.2299 13.6932C16.227 13.6932 19.3473 11.8107 19.3473 11.8107C19.3473 11.8107 20.5336 10.9597 20.5336 10.2118V6.73047L14.0866 8.63878C13.4677 8.81929 12.8488 8.89666 12.2299 8.89666Z" fill="#329DFF"/>
<path d="M23.9634 3.24928L13.803 0.232091C12.7972 -0.0773636 11.7142 -0.0773636 10.6826 0.232091L0.522205 3.24928C-0.174068 3.45558 -0.174068 4.46131 0.522205 4.66761L10.6826 7.68479C11.6884 7.99425 12.7714 7.99425 13.803 7.68479L22.6998 5.05443V5.85388C22.5193 5.93125 22.3645 6.11176 22.3645 6.31806V6.70488C22.3645 6.93697 22.5193 7.11748 22.6998 7.16906L22.1067 8.53581C22.0551 8.69054 22.1325 8.84528 22.2872 8.87107L22.7772 8.92263C22.8803 8.92263 22.9834 8.92263 23.0866 8.92263L23.5766 8.87107C23.7313 8.84528 23.8345 8.69054 23.7571 8.53581L23.164 7.16906C23.3703 7.0917 23.4992 6.91118 23.4992 6.70488V6.31806C23.4992 6.11176 23.3703 5.93125 23.164 5.85388V4.89971L23.9376 4.66761C24.6597 4.46131 24.6597 3.45558 23.9634 3.24928Z" fill="#329DFF"/>
</svg>
