<svg width="24" height="24" viewBox="0 0 24 24" fill="none" xmlns="http://www.w3.org/2000/svg">
<path d="M21.6 12C21.6 6.69807 17.3019 2.4 12 2.4C6.69807 2.4 2.4 6.69807 2.4 12C2.4 17.3019 6.69807 21.6 12 21.6V24C5.37258 24 0 18.6274 0 12C0 5.37258 5.37258 0 12 0C18.6274 0 24 5.37258 24 12C24 18.6274 18.6274 24 12 24V21.6C17.3019 21.6 21.6 17.3019 21.6 12Z" fill="#329DFF"/>
<path d="M17.5955 6.31551L13.8113 13.6106L10.3003 10.0997L17.5955 6.31551Z" fill="#329DFF"/>
<path d="M6.43351 17.4775L10.3831 10.017L13.894 13.5279L6.43351 17.4775Z" fill="#329DFF"/>
</svg>
