<svg width="24" height="20" viewBox="0 0 24 20" fill="none" xmlns="http://www.w3.org/2000/svg">
<path d="M18.7835 3.40332C18.782 3.40413 18.7804 3.40455 18.7787 3.40455C18.391 3.40468 18.0418 3.43434 17.7142 3.49844C17.2893 3.57997 16.8645 3.36502 16.6713 2.96972C15.7758 1.13652 13.9869 0 11.9978 0C10.0111 0 8.2198 1.13652 7.3242 2.96972C7.13108 3.36255 6.71104 3.58244 6.28616 3.49844C5.94337 3.4342 5.59333 3.40208 5.21431 3.40208C2.33682 3.40208 0 5.79118 0 8.72883C0 11.0167 1.41947 13.045 3.53171 13.7715C3.9252 13.9073 4.19073 14.2829 4.19073 14.7079V18.5161C4.19073 19.3356 4.8551 20 5.67464 20H18.3254C19.1449 20 19.8093 19.3356 19.8093 18.5161V14.7079C19.8093 14.2829 20.0748 13.9074 20.4683 13.7715C22.5806 13.0451 24 11.0191 24 8.72883C24 5.79211 21.6622 3.4035 18.7882 3.40209C18.7866 3.40208 18.7849 3.40251 18.7835 3.40332V3.40332Z" fill="#4FC86F"/>
</svg>
