<svg width="24" height="24" viewBox="0 0 24 24" fill="none" xmlns="http://www.w3.org/2000/svg">
<path fill-rule="evenodd" clip-rule="evenodd" d="M23.3729 0C23.7191 0 23.9998 0.284388 23.9998 0.635197L24 23.3648C24 23.7156 23.7193 24 23.3731 24H0.627081C0.280859 24 0.000190404 23.7156 0.000190404 23.3648L0 0.635197C0 0.284388 0.280669 0 0.626891 0C12.6621 0 14.6725 0 23.3729 0ZM17.3239 5.68963L17.285 5.72623L10.0148 13.1852L7.77787 10.89C7.55198 10.6582 7.19312 10.646 6.95323 10.8534L6.9144 10.89L5.18745 12.6619C4.96205 12.8939 4.95004 13.2619 5.15153 13.5083L5.18709 13.5482L9.57925 18.0633L9.61809 18.0999C9.84465 18.2958 10.1773 18.2957 10.4036 18.0996L10.4424 18.0629L19.8754 8.38412C20.1013 8.15234 20.1132 7.78414 19.9111 7.53801L19.8754 7.49816L18.1485 5.72624C17.9226 5.49449 17.5638 5.48228 17.3239 5.68963Z" fill="#4FC86F"/>
</svg>
