<svg width="24" height="24" viewBox="0 0 24 24" fill="none" xmlns="http://www.w3.org/2000/svg">
<path d="M11.9978 1.95312C7.6358 1.95312 3.9978 3.51213 3.9978 5.95312C3.9978 8.39412 7.6358 9.95312 11.9978 9.95312C16.3598 9.95312 19.9978 8.39412 19.9978 5.95312C19.9978 3.51213 16.3598 1.95312 11.9978 1.95312ZM3.9978 9.57812V11.9531C3.9978 14.3941 7.6358 15.9531 11.9978 15.9531C16.3598 15.9531 19.9978 14.3941 19.9978 11.9531V9.57812C18.1838 11.0681 15.3558 11.9531 11.9978 11.9531C8.6398 11.9531 5.8118 11.0681 3.9978 9.57812ZM3.9978 15.5781V17.9531C3.9978 20.3941 7.6358 21.9531 11.9978 21.9531C16.3598 21.9531 19.9978 20.3941 19.9978 17.9531V15.5781C18.1838 17.0681 15.3558 17.9531 11.9978 17.9531C8.6398 17.9531 5.8118 17.0681 3.9978 15.5781Z" fill="#FFCF24"/>
</svg>
