<svg width="23" height="24" viewBox="0 0 23 24" fill="none" xmlns="http://www.w3.org/2000/svg">
<path d="M17.2466 0C16.9418 0 16.6359 0.112806 16.4197 0.337203C15.7803 1.00439 13.4792 3.40558 12.9686 3.93957L2.61248 14.7454L1.46192 15.9454C1.30126 16.1134 1.21881 16.351 1.1743 16.5838L0.0236103 22.5873C-0.137389 23.4273 0.548928 24.1425 1.35404 23.9757C2.07314 23.8245 6.38804 22.9245 7.10714 22.7745C7.32989 22.7277 7.55782 22.6413 7.71836 22.4745L8.86905 21.2734L19.2246 10.4675C19.7363 9.9347 22.0375 7.53228 22.6769 6.86629C22.8919 6.64069 23 6.3215 23 6.00351C23 4.03914 22.5205 2.63515 21.5257 1.57557C20.5218 0.506379 19.1809 0 17.2466 0ZM17.6997 2.42275C18.7381 2.48635 19.4109 2.73479 19.872 3.22679C20.3435 3.72838 20.6413 4.42437 20.7057 5.48635C20.0756 6.14274 19.1533 7.09068 18.3977 7.87907C17.4858 6.92748 16.3611 5.75394 15.4491 4.80235C16.2058 4.01396 17.0706 3.07914 17.6997 2.42275ZM3.43956 17.3338L6.38805 20.4105L6.28017 20.5234C5.52117 20.6818 3.98846 21.0165 2.57661 21.3117L3.3317 17.4466L3.43956 17.3338Z" fill="#4FC86F"/>
</svg>
